<svg id="Capa_1" enable-background="new 0 0 512 512" height="512" viewBox="0 0 512 512" width="512" xmlns="http://www.w3.org/2000/svg"><g><g><path d="m512 256c0 65.237-24.395 124.779-64.576 169.984-121.752 54.709-261.095 54.709-382.848 0-40.181-45.205-64.576-104.747-64.576-169.984 0-141.387 114.613-256 256-256s256 114.613 256 256z" fill="#00b9ff"/><g><g><path d="m512 256c0 65.237-24.405 124.779-64.576 169.984-121.752 54.709-261.095 54.709-382.848 0-40.171-45.205-64.576-104.747-64.576-169.984 0-46.219 12.245-89.568 33.675-126.997 44.128 77.066 127.168 129.002 222.325 129.002s178.208-51.936 222.325-129.003c21.43 37.43 33.675 80.779 33.675 126.998z" fill="#0092ff"/></g></g></g><path d="m447.424 425.984c-13.472 15.168-28.725 28.715-45.419 40.331-41.418 28.8-91.733 45.685-146.005 45.685-13.131 0-26.037-.992-38.635-2.901-39.467-5.973-75.979-20.949-107.371-42.784-16.693-11.616-31.947-25.163-45.419-40.331z" fill="#fdd425"/><path d="m447.424 425.984c-13.472 15.168-28.725 28.715-45.419 40.331-41.418 28.8-91.733 45.685-146.005 45.685v-86.016z" fill="#feb123"/><path d="m295.168 288.768-3.093 17.035-20.789 14.923 15.744 12.928-5.056 27.861-16.789 16.405 11.744 11.456-5.056 27.861-11.936 18.261 6.88 9.589-4.309 23.787c-.661 3.616-3.584 5.429-6.507 5.429s-5.845-1.813-6.507-5.429l-3.424-18.869 5.045-16.384-9.675-9.184-4.64-25.557 9.707-15.723-14.347-9.845-4.629-25.568 11.904-19.232-16.544-6.336-6.059-33.408c-.736-4.053 2.389-7.797 6.507-7.797h65.323c4.117 0 7.242 3.744 6.506 7.797z" fill="#313133"/><path d="m295.168 288.768-3.093 17.035-20.789 14.923 15.744 12.928-5.056 27.861-16.789 16.405 11.744 11.456-5.056 27.861-11.936 18.261 6.88 9.589-4.309 23.787c-.661 3.616-3.584 5.429-6.507 5.429v-193.332h32.661c4.117 0 7.242 3.744 6.506 7.797z" fill="#2b2b2b"/><path d="m210.347 102.005v186.443c0 3.36 2.72 6.091 6.08 6.091h79.147c3.36 0 6.08-2.731 6.08-6.091v-186.443z" fill="#c8c6cb"/><path d="m256 102.005v192.534h39.573c3.36 0 6.08-2.731 6.08-6.091v-186.443z" fill="#aeadb2"/><path d="m301.653 137.384v-100.424c0-6.784-5.493-12.277-12.277-12.277h-66.752c-6.784 0-12.277 5.493-12.277 12.277v100.424z" fill="#313133"/><path d="m301.653 137.384v-100.424c0-6.784-5.493-12.277-12.277-12.277h-33.376v112.701z" fill="#2b2b2b"/><path d="m321.184 86.433v130.591h-130.368v-130.591c0-8.747 7.083-15.829 15.819-15.829h98.731c8.735-.001 15.818 7.082 15.818 15.829z" fill="#fdd425"/><path d="m321.184 86.433v130.591h-65.184v-146.421h49.365c8.736 0 15.819 7.083 15.819 15.83z" fill="#feb123"/><g><g><path d="m229.429 200.395-83.328 225.589h-33.034l83.328-225.589z" fill="#fff"/><path d="m229.429 200.395-83.328 225.589h-16.992l83.328-225.589z" fill="#dddddf"/><path d="m398.933 425.984h-33.034l-83.328-225.589h33.034z" fill="#dddddf"/><path d="m398.933 425.984h-16.128l-83.328-225.589h16.128z" fill="#c8c6cb"/></g><path d="m384.981 222.101c0 5.995-2.432 11.424-6.357 15.349s-9.355 6.357-15.349 6.357h-214.55c-11.989 0-21.707-9.717-21.707-21.707s9.717-21.707 21.707-21.707h214.549c11.99.002 21.707 9.719 21.707 21.708z" fill="#313133"/></g><g fill="#c8c6cb"><path d="m271.872 417.237-5.056 27.851-10.816 2.56-9.931 2.357-4.629-25.568 14.56-3.445z"/><path d="m281.973 361.515-5.045 27.861-20.928 4.96-19.2 4.544-4.64-25.568 23.84-5.643z"/><path d="m292.075 305.803-5.046 27.85-31.029 7.35-28.469 6.741-4.64-25.568 33.109-7.84z"/></g><path d="m295.989 111.499v54.922c0 6.336-5.131 11.467-11.467 11.467h-57.045c-6.336 0-11.467-5.131-11.467-11.467v-54.922c0-6.325 5.131-11.467 11.467-11.467h57.045c6.337.001 11.467 5.142 11.467 11.467z" fill="#feb123"/><g><path d="m68.577 346.246c0 6.772-5.495 12.267-12.272 12.267-6.778 0-12.267-5.495-12.267-12.267 0-6.778 5.489-12.273 12.267-12.273 6.777 0 12.272 5.495 12.272 12.273z" fill="#fff"/><path d="m68.577 346.246c0 6.772-5.495 12.267-12.272 12.267v-24.54c6.777 0 12.272 5.495 12.272 12.273z" fill="#dddddf"/></g><g><path d="m431.695 292.329c0 6.772-5.495 12.267-12.273 12.267s-12.267-5.495-12.267-12.267c0-6.778 5.49-12.272 12.267-12.272 6.779-.001 12.273 5.494 12.273 12.272z" fill="#fff"/><path d="m431.695 292.329c0 6.772-5.495 12.267-12.273 12.267v-24.54c6.779 0 12.273 5.495 12.273 12.273z" fill="#dddddf"/></g><g><path d="m207.437 396.38c0 4.999-4.056 9.054-9.058 9.054s-9.054-4.056-9.054-9.054c0-5.003 4.052-9.058 9.054-9.058s9.058 4.055 9.058 9.058z" fill="#fff"/><path d="m207.437 396.38c0 4.999-4.056 9.054-9.058 9.054v-18.113c5.002 0 9.058 4.056 9.058 9.059z" fill="#dddddf"/></g><g><path d="m326.352 376.56c0 4.999-4.056 9.054-9.058 9.054-5.003 0-9.054-4.056-9.054-9.054 0-5.003 4.052-9.058 9.054-9.058s9.058 4.056 9.058 9.058z" fill="#fff"/><path d="m326.352 376.56c0 4.999-4.056 9.054-9.058 9.054v-18.113c5.002.001 9.058 4.057 9.058 9.059z" fill="#dddddf"/></g><g><path d="m447.424 392.216c0 4.999-4.056 9.054-9.058 9.054s-9.054-4.056-9.054-9.054c0-5.003 4.052-9.058 9.054-9.058s9.058 4.056 9.058 9.058z" fill="#fff"/><path d="m447.424 392.216c0 4.999-4.056 9.054-9.058 9.054v-18.113c5.002.001 9.058 4.057 9.058 9.059z" fill="#dddddf"/></g><g><path d="m142.315 279.527c0 4.998-4.056 9.054-9.058 9.054-5.003 0-9.054-4.056-9.054-9.054 0-5.003 4.052-9.058 9.054-9.058s9.058 4.056 9.058 9.058z" fill="#fff"/><path d="m142.315 279.527c0 4.998-4.056 9.054-9.058 9.054v-18.113c5.002.001 9.058 4.057 9.058 9.059z" fill="#dddddf"/></g><path d="m295.989 111.499v54.922c0 6.336-5.131 11.467-11.467 11.467h-28.522v-77.855h28.523c6.336 0 11.466 5.141 11.466 11.466z" fill="#fc9f0b"/><path d="m384.981 222.101c0 5.995-2.432 11.424-6.357 15.349s-9.355 6.357-15.349 6.357h-107.275v-43.413h107.275c11.989.001 21.706 9.718 21.706 21.707z" fill="#2b2b2b"/><path d="m256 420.992 15.872-3.755-5.056 27.851-10.816 2.56z" fill="#aeadb2"/><path d="m256 367.669 25.973-6.154-5.045 27.861-20.928 4.96z" fill="#aeadb2"/><path d="m292.075 305.803-5.046 27.85-31.029 7.35v-26.667z" fill="#aeadb2"/></g></svg>