<svg id="Layer_1" enable-background="new 0 0 512.545 512.545" height="512" viewBox="0 0 512.545 512.545" width="512" xmlns="http://www.w3.org/2000/svg"><g><circle cx="256.272" cy="256.272" fill="#e5e9f3" r="241.272"/><path d="m256.273 15v482.545c133.251 0 241.272-108.021 241.272-241.272s-108.021-241.273-241.272-241.273z" fill="#c8ddff"/><path d="m256.272 512.545c-68.453 0-132.809-26.657-181.212-75.061-48.403-48.403-75.06-112.759-75.06-181.212s26.657-132.808 75.061-181.211c48.403-48.404 112.758-75.061 181.211-75.061s132.809 26.657 181.212 75.061c48.403 48.403 75.061 112.759 75.061 181.212s-26.657 132.809-75.061 181.212c-48.403 48.403-112.758 75.06-181.212 75.06zm0-482.545c-60.439 0-117.262 23.537-159.999 66.274s-66.273 99.559-66.273 159.998 23.536 117.262 66.273 159.999 99.56 66.274 159.999 66.274 117.262-23.537 159.999-66.274 66.273-99.559 66.273-159.999-23.536-117.262-66.273-159.999c-42.737-42.736-99.559-66.273-159.999-66.273z" fill="#003d69"/><path d="m256.273 0v30c60.439 0 117.261 23.537 159.999 66.274 42.737 42.737 66.273 99.559 66.273 159.999s-23.536 117.262-66.273 159.999-99.559 66.274-159.999 66.274v30c68.453 0 132.808-26.657 181.211-75.061 48.403-48.403 75.061-112.759 75.061-181.212s-26.657-132.809-75.061-181.212c-48.403-48.404-112.758-75.061-181.211-75.061z" fill="#0f1a4d"/><path d="m340.428 321.479-46.359-99.015c-1.439-3.073-3.914-5.522-6.96-6.938l-98.154-46.059c-5.488-2.578-12.002-1.429-16.281 2.865s-5.403 10.812-2.808 16.291l46.362 97.898c1.418 2.994 3.825 5.398 6.798 6.817l98.165 47.183c1.986.954 4.111 1.418 6.22 1.418 3.706 0 7.36-1.433 10.112-4.157 4.318-4.274 5.481-10.801 2.905-16.303z" fill="#fff5f5"/><circle cx="257.153" cy="71.885" fill="#91bbff" r="15"/><circle cx="257.153" cy="439.674" fill="#91bbff" r="15"/><circle cx="440.167" cy="256" fill="#5899ff" r="15"/><circle cx="72.378" cy="256" fill="#91bbff" r="15"/><path d="m257.153 56.885c-.297 0-.587.027-.88.044v29.911c.293.017.583.044.88.044 8.284 0 15-6.716 15-15s-6.716-14.999-15-14.999z" fill="#5899ff"/><path d="m257.153 424.674c-.297 0-.587.027-.88.044v29.911c.293.017.583.044.88.044 8.284 0 15-6.716 15-15s-6.716-14.999-15-14.999z" fill="#5899ff"/><path d="m294.069 222.464c-1.439-3.073-3.914-5.522-6.96-6.938l-30.838-14.471v108.262l64.921 31.204c1.986.954 4.111 1.418 6.22 1.418 3.706 0 7.36-1.433 10.112-4.157 4.318-4.274 5.481-10.801 2.904-16.303z" fill="#e5e9f3"/><path d="m294.069 222.464c-.608-1.298-1.41-2.476-2.352-3.521l-73.34 70.849c1.286 1.479 2.863 2.693 4.649 3.546l98.165 47.183c1.986.954 4.111 1.418 6.22 1.418 3.706 0 7.36-1.433 10.112-4.157 4.318-4.274 5.481-10.801 2.904-16.303z" fill="#ff3543"/><path d="m294.069 222.464c-.608-1.298-1.41-2.476-2.352-3.521l-35.446 34.242v56.131l64.921 31.204c1.986.954 4.111 1.418 6.22 1.418 3.706 0 7.36-1.433 10.112-4.157 4.318-4.274 5.481-10.801 2.904-16.303z" fill="#de005e"/></g></svg>